<svg version="1.1" id="Layer_1" xmlns="http://www.w3.org/2000/svg" xmlns:xlink="http://www.w3.org/1999/xlink" x="0px" y="0px"
	 viewBox="0 0 577.9 883.1" style="enable-background:new 0 0 577.9 883.1;" xml:space="preserve">
<style type="text/css">
	.st0{fill:#FFFFFF;}
</style>
<path class="st0" d="M302,787.7c8.8-11.5,17.5-22.7,26.1-33.9c6.2-8.1,12.3-16.3,18.3-24.5c7.4-10.1,14.6-20.4,21.7-30.6
	c8.4-12,16.6-24,24.9-36c7.1-10.3,14.2-20.6,21-31.1c4.1-6.3,8.5-12.6,11.6-19.5c6.4-14.2,8.1-29.4,4.4-44.4
	c-1.8-7.2-6.1-14.2-10.7-20.3c-14.2-19-29.3-37.3-43.7-56.1c-11.6-15.1-22.8-30.6-34-46c-13-17.9-25.9-35.9-38.7-53.9
	c-9.9-14-19.5-28.2-29.5-42.2c-7.9-11.1-16.2-22-24.1-33.2c-9.9-14.2-20.6-28-26.9-44.2c-5.8-15-6.4-29.7,3.8-44
	c12.6-17.6,23.4-36.3,36.3-53.6c11.5-15.6,24.8-29.9,37.3-44.7c5-5.9,10.3-11.6,15.1-17.6c5.9-7.3,17.7-10.1,26.5-6.8
	c14.9,5.6,25,16.4,34,28.9c5.5,7.7,11.7,15,17.5,22.6c5.9,7.7,11.7,15.5,17.5,23.3c9.7,13,19.5,26.1,29.2,39.2
	c11.7,15.8,23.2,31.6,34.9,47.4c17.7,23.9,35.6,47.7,53.2,71.8c10.1,13.9,19.9,27.9,29.5,42.2c8.4,12.6,16.6,25.8,19.1,40.9
	c1.8,11,1.9,22.6,1.2,33.8c-1,15.2-5.5,29.9-11.8,43.8c-4.9,10.8-9.6,21.6-15.2,32c-5.2,9.6-11.2,18.7-17.1,27.8
	c-9.4,14.4-18.9,28.7-28.6,42.8c-8,11.7-16.3,23.1-24.6,34.6c-8.7,12-17.4,24-26.2,35.9c-7.3,9.8-14.8,19.4-22.3,29
	c-8.7,11.2-17.4,22.3-26.3,33.3c-14.8,18.1-29.5,36.3-44.9,54c-11.6,13.4-24,26.2-36.2,39.2c-11.9,12.7-23.8,25.4-36.2,37.6
	c-8.2,8.1-17,15.7-29,17.7c-7.3,1.2-13.8-0.9-19.5-5.4c-11.7-9.3-23.7-18.4-32.6-30.8c-10.6-14.8-13.7-31.3-11.8-49
	c0.4-3.9,1.6-7.7,2.9-11.4c2-5.5,5.9-5.9,10.2-1.8c9.9,9.5,19.6,19.2,30,28c12.7,10.8,25.7,10.6,39.5-0.9
	C286.3,804.4,293.8,795.9,302,787.7L302,787.7z"/>
<path class="st0" d="M8.4,481.3c-9-19.8-10-40.3-6.5-60.8c3.5-20.4,10.5-39.9,21.1-57.8C33.8,344.2,45,326,56.6,308
	c8.6-13.4,17.8-26.4,27.1-39.4c14.4-20.1,28.8-40.1,43.6-59.9c14.4-19.2,29-38.3,44-57.1c11.6-14.5,23.8-28.6,35.9-42.7
	c10.8-12.4,21.7-24.7,32.8-36.9c11.6-12.8,23-25.7,35-38.1c8.8-9.1,17.9-17.9,27.7-25.8c4.8-3.8,11.3-5.9,17.4-7.6
	c7.9-2.2,14.9,1.9,20.5,6.6c9.7,8.1,19,16.9,27.9,25.9c7.5,7.7,11.6,17.5,13.7,28.1c2.1,10.1,2.7,20.1,0,30.1c-0.3,1-0.3,2-0.6,2.9
	c-2.8,8.9-5.1,10.9-12.4,3.8c-9.2-9-18.6-17.8-28.4-26.2C327,60.1,316.2,61.2,302.2,71c-14.2,10-25.2,23.2-35.5,37
	c-12.3,16.5-25,32.7-37.1,49.3c-10,13.7-19.4,27.9-29.1,41.8c-5.7,8.3-11.6,16.5-17.3,24.8c-5.3,7.8-10.3,15.7-15.5,23.5
	c-3.5,5.2-7.4,10.1-10.6,15.4c-6.2,10.2-9.9,21.2-10.2,33.3c-0.2,9.7-0.7,19.5,4.3,28.1c4.1,7.1,9.2,13.6,14.2,20.1
	c8.4,11.1,17.3,22,25.7,33.1c13.4,17.8,26.7,35.6,39.8,53.6c16.7,22.9,33.2,46,49.7,69c11.1,15.5,22.1,31.2,33,46.8
	c11,15.7,22.3,31.1,32.5,47.2c7.5,11.8,13.7,24.5,14,39.2c0.2,8.3-3.4,15.4-7.4,21.7c-11.2,17.5-22.6,34.9-35.1,51.4
	c-13.2,17.4-27.8,33.7-41.9,50.5c-4.2,5-8.6,10-13,14.9c-7.8,8.7-16.8,10-27.7,5.8c-15.2-5.9-24.6-17.8-33.9-30.1
	c-8.1-10.6-16.3-21.2-24.3-31.9c-7.6-10.1-15-20.4-22.5-30.5c-5.3-7.2-10.6-14.3-15.9-21.4c-7-9.3-14-18.7-21-28
	c-8.1-10.8-16-21.7-24.1-32.6c-9.8-13.2-19.6-26.5-29.5-39.7c-6-8-12.3-15.9-18.1-24.1c-7.3-10.2-14.4-20.5-21.2-31
	C19,499.6,13.8,490.6,8.4,481.3L8.4,481.3z"/>
</svg>
